<svg xmlns="http://www.w3.org/2000/svg" width="841.92" height="309.07" overflow="visible"><style>.st4{fill:#852cde}</style><path d="M786.73 302.07H55.19C28.69 302.07 7 280.38 7 253.88V55.19C7 28.69 28.69 7 55.19 7h731.54c26.51 0 48.19 21.69 48.19 48.19v198.69c0 26.5-21.69 48.19-48.19 48.19z" fill="#fff"/><path d="M834.92 220.12v33.76c0 26.51-21.69 48.19-48.2 48.19H55.19C28.68 302.07 7 280.39 7 253.88v-33.76c0 26.51 21.68 48.19 48.19 48.19h731.53c26.51 0 48.2-21.68 48.2-48.19z" fill="#ead6ff"/><path d="M786.73 302.07H55.19C28.69 302.07 7 280.38 7 253.88V55.19C7 28.69 28.69 7 55.19 7h731.54c26.51 0 48.19 21.69 48.19 48.19v198.69c0 26.5-21.69 48.19-48.19 48.19z" fill="none" stroke="#852cde" stroke-width="10" stroke-miterlimit="10"/><path d="M786.73 302.07H55.19C28.69 302.07 7 280.38 7 253.88V55.19C7 28.69 28.69 7 55.19 7h731.54c26.51 0 48.19 21.69 48.19 48.19v198.69c0 26.5-21.69 48.19-48.19 48.19z" fill="none" stroke="#852cde" stroke-width="14" stroke-miterlimit="10"/><path class="st4" d="M227.2 113.67c-7.16-6.48-13.98-8.18-19.09-8.18-3.24 0-7.84.51-10.74 2.9-2.39 1.88-3.92 5.11-3.92 8.18 0 3.41 1.53 5.79 3.92 7.67 2.39 2.05 5.45 3.41 11.08 5.97l6.65 3.07c5.45 2.56 10.57 5.45 15 10.91 4.09 5.11 5.79 10.4 5.79 17.73 0 11.93-4.77 22.5-11.42 29.14-9.2 9.03-20.96 11.08-32.55 11.08-8.35 0-15-1.02-22.67-5.11-5.62-3.07-11.08-7.67-15.17-12.1l14.66-18.75c2.39 3.24 6.14 6.82 9.54 9.03 3.58 2.22 8.35 3.75 13.29 3.75 3.92 0 9.38-1.19 12.61-3.58 3.07-2.39 4.77-6.31 4.77-10.57 0-4.09-1.88-6.48-3.24-7.84-.85-.85-3.07-2.73-9.03-5.11l-6.65-2.73c-1.88-.68-10.57-4.43-16.02-10.06-5.45-5.62-7.5-12.1-7.5-19.26 0-11.76 4.77-20.28 10.23-25.74 9.2-9.03 20.96-10.74 30.68-10.74s20.96 1.88 32.89 11.25l-13.11 19.09zM268.71 123.56l14.49 40.74 25.05-40.74h27.27l-48.41 76.02h-14.66l-29.32-76.02h25.58zM368.12 132.08c1.19-1.53 4.43-5.28 9.38-7.84 4.77-2.39 9.71-3.24 14.83-3.24 9.2 0 16.7 2.39 23.01 8.18 9.03 8.35 10.91 19.43 10.91 27.78 0 13.98-4.43 26.25-12.44 34.43-8.18 8.35-17.38 10.74-28.12 10.74-4.77 0-10.74-.68-16.02-3.58-5.11-2.9-8.35-7.16-9.2-8.35l-.68 9.37h-24.54l15.51-124.25h24.54l-7.18 56.76zm1.36 15.34c-3.58 3.58-6.31 9.03-6.31 15.68 0 7.33 3.07 11.42 4.94 13.12 2.9 2.73 7.5 4.77 12.44 4.77 4.6 0 10.23-1.88 13.98-5.62 4.09-3.92 6.48-10.4 6.48-15.85 0-4.94-1.88-9.54-5.28-12.78-2.56-2.56-6.48-4.6-12.1-4.6-6.82-.01-11.42 2.55-14.15 5.28zM446.52 123.56h24.54l-1.36 8.86c2.73-3.92 6.14-6.31 9.03-7.84 1.88-.85 6.31-2.9 12.95-2.9 5.96 0 10.57 1.53 13.81 3.75 1.53 1.02 5.62 4.09 7.84 10.23 1.02-1.53 4.43-6.48 10.06-9.89 5.28-3.24 11.08-4.09 16.19-4.09 5.45 0 13.81.85 20.28 6.99 9.2 8.86 7.5 20.45 6.31 30l-4.94 40.91h-24.54l4.43-36.64c.68-6.14.85-8.01.85-9.37 0-2.56-.51-6.14-3.07-8.69-1.53-1.53-4.26-2.73-7.33-2.73-3.92 0-7.16 1.53-9.37 3.75-2.56 2.56-5.11 7.33-6.31 17.04l-4.43 36.64h-24.54l4.6-37.5c.34-3.07.68-5.62.68-8.35 0-2.39-.17-6.14-2.73-8.69-1.88-1.88-5.11-2.9-7.84-2.9-2.9 0-6.48 1.02-9.37 3.92-4.6 4.77-5.45 11.76-6.14 17.21l-4.43 36.3h-24.54l9.37-76.01zM615.27 123.56l-9.37 76.02h-24.54l9.37-76.02h24.54zm-9.03-46.7c8.01 0 14.32 6.31 14.32 14.32s-6.31 14.32-14.32 14.32-14.32-6.31-14.32-14.32 6.31-14.32 14.32-14.32zM660.25 143.33l-6.99 56.25h-24.54l6.99-56.25h-8.86l2.39-19.77h8.86l3.07-24.54h24.54l-3.07 24.54h15l-2.39 19.77h-15z"/></svg>